<svg xmlns="http://www.w3.org/2000/svg" width="900" height="520" viewBox="0 0 900 520">
  <!-- Background -->
  <rect width="900" height="520" fill="#0d1117"/>

  <!-- Top browser chrome -->
  <rect x="0" y="0" width="900" height="44" fill="#161b22"/>
  <circle cx="22" cy="22" r="6" fill="#ff5f57"/>
  <circle cx="44" cy="22" r="6" fill="#febc2e"/>
  <circle cx="66" cy="22" r="6" fill="#28c840"/>
  <rect x="200" y="10" width="500" height="24" rx="12" fill="#0d1117"/>
  <text x="450" y="27" fill="#8b949e" font-family="monospace" font-size="11" text-anchor="middle">rubenfm77.github.io/eurocredit/ — EuroCredit Terminal</text>

  <!-- Header bar -->
  <rect x="0" y="44" width="900" height="46" fill="#161b22" stroke="#21262d" stroke-width="1"/>
  <text x="20" y="73" fill="#58a6ff" font-family="monospace" font-size="15" font-weight="bold">🏦 EuroCredit</text>
  <text x="130" y="73" fill="#6e7681" font-family="monospace" font-size="11">Counterparty Credit Risk Terminal</text>
  <rect x="720" y="57" width="160" height="20" rx="4" fill="#0d1117" stroke="#30363d" stroke-width="1"/>
  <text x="800" y="71" fill="#8b949e" font-family="monospace" font-size="10" text-anchor="middle">🔍 Search counterparty...</text>

  <!-- Portfolio Strip (4 KPI tiles) -->
  <rect x="10" y="100" width="880" height="60" rx="6" fill="#161b22" stroke="#21262d" stroke-width="1"/>
  <!-- KPI 1 -->
  <text x="30" y="120" fill="#8b949e" font-family="monospace" font-size="9" text-transform="uppercase">COUNTERPARTIES</text>
  <text x="30" y="146" fill="#f2f1ec" font-family="sans-serif" font-size="22" font-weight="bold">60</text>
  <rect x="217" y="105" width="1" height="50" fill="#21262d"/>
  <!-- KPI 2 -->
  <text x="237" y="120" fill="#8b949e" font-family="monospace" font-size="9">AVG 12-MONTH PD</text>
  <text x="237" y="146" fill="#d29922" font-family="sans-serif" font-size="22" font-weight="bold">4.7%</text>
  <rect x="434" y="105" width="1" height="50" fill="#21262d"/>
  <!-- KPI 3 -->
  <text x="454" y="120" fill="#8b949e" font-family="monospace" font-size="9">INVESTMENT GRADE</text>
  <text x="454" y="146" fill="#3fb950" font-family="sans-serif" font-size="22" font-weight="bold">28 / 60</text>
  <rect x="651" y="105" width="1" height="50" fill="#21262d"/>
  <!-- KPI 4 -->
  <text x="671" y="120" fill="#8b949e" font-family="monospace" font-size="9">ACTIVE FLAGS</text>
  <text x="671" y="146" fill="#f85149" font-family="sans-serif" font-size="22" font-weight="bold">9</text>

  <!-- Company Table (left panel) -->
  <rect x="10" y="172" width="420" height="338" rx="6" fill="#161b22" stroke="#21262d" stroke-width="1"/>
  <!-- Table header -->
  <rect x="10" y="172" width="420" height="28" rx="6" fill="#1c2128"/>
  <text x="24" y="191" fill="#8b949e" font-family="monospace" font-size="10" font-weight="bold">COMPANY</text>
  <text x="220" y="191" fill="#8b949e" font-family="monospace" font-size="10" font-weight="bold">GRADE</text>
  <text x="280" y="191" fill="#8b949e" font-family="monospace" font-size="10" font-weight="bold">PD</text>
  <text x="340" y="191" fill="#8b949e" font-family="monospace" font-size="10" font-weight="bold">FLAGS</text>

  <!-- Row 1 — selected -->
  <rect x="10" y="200" width="420" height="30" fill="#1f2937"/>
  <circle cx="22" cy="215" r="4" fill="#58a6ff"/>
  <text x="34" y="220" fill="#f2f1ec" font-family="sans-serif" font-size="12" font-weight="600">Iberian Dynamics S.A.</text>
  <text x="194" y="220" fill="#8b949e" font-family="monospace" font-size="10">ES</text>
  <rect x="216" y="206" width="38" height="18" rx="4" fill="#1a4a2e"/>
  <text x="235" y="219" fill="#3fb950" font-family="monospace" font-size="11" font-weight="bold" text-anchor="middle">BBB</text>
  <text x="280" y="220" fill="#d29922" font-family="monospace" font-size="11">1.2%</text>
  <text x="340" y="220" fill="#6e7681" font-family="monospace" font-size="11">—</text>

  <!-- Row 2 -->
  <rect x="10" y="230" width="420" height="30" fill="#161b22"/>
  <circle cx="22" cy="245" r="4" fill="#8b949e"/>
  <text x="34" y="250" fill="#c9d1d9" font-family="sans-serif" font-size="12">Nordex Capital GmbH</text>
  <text x="194" y="250" fill="#8b949e" font-family="monospace" font-size="10">DE</text>
  <rect x="216" y="236" width="38" height="18" rx="4" fill="#0c2a14"/>
  <text x="235" y="249" fill="#3fb950" font-family="monospace" font-size="11" font-weight="bold" text-anchor="middle">A</text>
  <text x="280" y="250" fill="#3fb950" font-family="monospace" font-size="11">0.4%</text>
  <text x="340" y="250" fill="#6e7681" font-family="monospace" font-size="11">—</text>

  <!-- Row 3 -->
  <rect x="10" y="260" width="420" height="30" fill="#161b22"/>
  <circle cx="22" cy="275" r="4" fill="#8b949e"/>
  <text x="34" y="280" fill="#c9d1d9" font-family="sans-serif" font-size="12">Adriatic Trade S.r.l.</text>
  <text x="194" y="280" fill="#8b949e" font-family="monospace" font-size="10">IT</text>
  <rect x="216" y="266" width="38" height="18" rx="4" fill="#3d1f00"/>
  <text x="235" y="279" fill="#f0883e" font-family="monospace" font-size="11" font-weight="bold" text-anchor="middle">BB</text>
  <text x="280" y="280" fill="#f0883e" font-family="monospace" font-size="11">5.8%</text>
  <rect x="336" y="267" width="36" height="16" rx="3" fill="#3d1408"/>
  <text x="354" y="279" fill="#f85149" font-family="monospace" font-size="9" text-anchor="middle">GDPR</text>

  <!-- Row 4 -->
  <rect x="10" y="290" width="420" height="30" fill="#161b22"/>
  <circle cx="22" cy="305" r="4" fill="#8b949e"/>
  <text x="34" y="310" fill="#c9d1d9" font-family="sans-serif" font-size="12">BalticEdge UAB</text>
  <text x="194" y="310" fill="#8b949e" font-family="monospace" font-size="10">LT</text>
  <rect x="216" y="296" width="38" height="18" rx="4" fill="#3d1408"/>
  <text x="235" y="309" fill="#f85149" font-family="monospace" font-size="11" font-weight="bold" text-anchor="middle">CCC</text>
  <text x="280" y="310" fill="#f85149" font-family="monospace" font-size="11">18.3%</text>
  <rect x="336" y="297" width="36" height="16" rx="3" fill="#3d1408"/>
  <text x="354" y="309" fill="#f85149" font-family="monospace" font-size="9" text-anchor="middle">EU AI</text>

  <!-- Row 5 -->
  <rect x="10" y="320" width="420" height="30" fill="#161b22"/>
  <circle cx="22" cy="335" r="4" fill="#8b949e"/>
  <text x="34" y="340" fill="#c9d1d9" font-family="sans-serif" font-size="12">Renova Capital S.A.S.</text>
  <text x="194" y="340" fill="#8b949e" font-family="monospace" font-size="10">FR</text>
  <rect x="216" y="326" width="38" height="18" rx="4" fill="#0c2a14"/>
  <text x="235" y="339" fill="#3fb950" font-family="monospace" font-size="11" font-weight="bold" text-anchor="middle">AA</text>
  <text x="280" y="340" fill="#3fb950" font-family="monospace" font-size="11">0.1%</text>
  <text x="340" y="340" fill="#6e7681" font-family="monospace" font-size="11">—</text>

  <!-- Muted rows -->
  <rect x="10" y="350" width="420" height="160" fill="#161b22"/>
  <text x="235" y="430" fill="#30363d" font-family="monospace" font-size="11" text-anchor="middle">55 more counterparties...</text>

  <!-- Credit Dossier (right panel) -->
  <rect x="440" y="172" width="450" height="338" rx="6" fill="#161b22" stroke="#21262d" stroke-width="1"/>
  <!-- Dossier header -->
  <rect x="440" y="172" width="450" height="36" rx="6" fill="#1c2128"/>
  <text x="458" y="195" fill="#f2f1ec" font-family="sans-serif" font-size="13" font-weight="bold">Iberian Dynamics S.A.</text>
  <rect x="680" y="180" width="38" height="20" rx="4" fill="#1a4a2e"/>
  <text x="699" y="194" fill="#3fb950" font-family="monospace" font-size="13" font-weight="bold" text-anchor="middle">BBB</text>
  <text x="730" y="194" fill="#3fb950" font-family="monospace" font-size="11">1.23%</text>
  <text x="458" y="212" fill="#6e7681" font-family="monospace" font-size="9">Spain · Manufacturing · Investment Grade</text>

  <!-- Rating breakdown bars -->
  <text x="458" y="234" fill="#8b949e" font-family="monospace" font-size="9" font-weight="bold">RATING BREAKDOWN</text>
  <!-- Z-score -->
  <text x="458" y="252" fill="#6e7681" font-family="monospace" font-size="9">Altman Z″</text>
  <rect x="540" y="243" width="200" height="10" rx="3" fill="#21262d"/>
  <rect x="540" y="243" width="148" height="10" rx="3" fill="#3fb950"/>
  <text x="748" y="252" fill="#3fb950" font-family="monospace" font-size="9">3.41</text>
  <!-- Leverage -->
  <text x="458" y="270" fill="#6e7681" font-family="monospace" font-size="9">Leverage</text>
  <rect x="540" y="261" width="200" height="10" rx="3" fill="#21262d"/>
  <rect x="540" y="261" width="130" height="10" rx="3" fill="#58a6ff"/>
  <text x="748" y="270" fill="#58a6ff" font-family="monospace" font-size="9">2.8×</text>
  <!-- DSCR -->
  <text x="458" y="288" fill="#6e7681" font-family="monospace" font-size="9">DSCR</text>
  <rect x="540" y="279" width="200" height="10" rx="3" fill="#21262d"/>
  <rect x="540" y="279" width="160" height="10" rx="3" fill="#58a6ff"/>
  <text x="748" y="288" fill="#58a6ff" font-family="monospace" font-size="9">1.62</text>
  <!-- Country risk -->
  <text x="458" y="306" fill="#6e7681" font-family="monospace" font-size="9">Country Risk</text>
  <rect x="540" y="297" width="200" height="10" rx="3" fill="#21262d"/>
  <rect x="540" y="297" width="170" height="10" rx="3" fill="#3fb950"/>
  <text x="748" y="306" fill="#3fb950" font-family="monospace" font-size="9">Low (ES)</text>

  <!-- Financial ratios -->
  <rect x="450" y="320" width="430" height="1" fill="#21262d"/>
  <text x="458" y="340" fill="#8b949e" font-family="monospace" font-size="9" font-weight="bold">FINANCIALS</text>
  <rect x="450" y="348" width="138" height="52" rx="4" fill="#0d1117" stroke="#21262d" stroke-width="1"/>
  <text x="519" y="368" fill="#8b949e" font-family="monospace" font-size="8" text-anchor="middle">Revenue</text>
  <text x="519" y="385" fill="#f2f1ec" font-family="sans-serif" font-size="14" font-weight="bold" text-anchor="middle">€ 84M</text>
  <rect x="596" y="348" width="138" height="52" rx="4" fill="#0d1117" stroke="#21262d" stroke-width="1"/>
  <text x="665" y="368" fill="#8b949e" font-family="monospace" font-size="8" text-anchor="middle">Net Debt / EBITDA</text>
  <text x="665" y="385" fill="#d29922" font-family="sans-serif" font-size="14" font-weight="bold" text-anchor="middle">2.8×</text>
  <rect x="742" y="348" width="138" height="52" rx="4" fill="#0d1117" stroke="#21262d" stroke-width="1"/>
  <text x="811" y="368" fill="#8b949e" font-family="monospace" font-size="8" text-anchor="middle">EBITDA Margin</text>
  <text x="811" y="385" fill="#3fb950" font-family="sans-serif" font-size="14" font-weight="bold" text-anchor="middle">19.4%</text>

  <!-- Compliance flags section -->
  <rect x="450" y="410" width="430" height="1" fill="#21262d"/>
  <text x="458" y="430" fill="#8b949e" font-family="monospace" font-size="9" font-weight="bold">COMPLIANCE FLAGS</text>
  <text x="458" y="450" fill="#3fb950" font-family="monospace" font-size="11">✓ No active compliance flags</text>
  <text x="458" y="468" fill="#6e7681" font-family="monospace" font-size="9">Last reviewed: 2026-06-15 · Basel III compliant · IFRS 9 Stage 1</text>

  <!-- Bottom label -->
  <text x="450" y="500" fill="#30363d" font-family="monospace" font-size="9">No backend · 100% client-side · React + Vite · rubenfm77.github.io/eurocredit</text>
</svg>
